<svg role="img" aria-labelledby="figure-title figure-desc" xmlns="http://www.w3.org/2000/svg" xmlns:xlink="http://www.w3.org/1999/xlink" width="604" height="743" viewBox="0 0 604 743" font-family="-apple-system, BlinkMacSystemFont, 'Segoe UI', Roboto, Helvetica, Arial, sans-serif">
<title id="figure-title">Verification ladder</title>
<desc id="figure-desc">Four verification tiers from editor LSP to git hooks, local gate stages, and CI PR admission re-checking Exit-0 receipts.</desc>
<!-- interfig (c) 2025 Vectorize AI, Inc. MIT https://github.com/vectorize-io/hindsight/tree/ccfe85b4851957ac2adf88b4a9ddf9668b2882f1/hindsight-interfig -->
<metadata id="figure-spec"><![CDATA[{"props":{"speed":1000,"layout":{"direction":"column","gap":48,"children":[{"id":"workstation","label":"Local Workstation","direction":"column","align":"end","gap":26,"children":[{"id":"editor","label":"1. Editor LSP","sub":"cmd/standards-lsp","width":220},{"direction":"row","gap":110,"children":[{"id":"blocked","label":"Blocked locally","sub":"commit or push refused","width":190},{"id":"hooks","label":"2. Git Hooks","sub":"lefthook pre-commit & pre-push","width":220}]},{"direction":"row","gap":110,"children":[{"id":"key","label":"Signing Key","sub":"env var or key file","shape":"store","width":190},{"id":"gate","label":"3. Gate Pipeline","sub":"6 stages in internal/gating","width":220}]},{"id":"receipt","label":".standards-receipt.json","sub":"Exit-0 receipt","shape":"store","width":220}]},{"id":"remote","label":"Remote CI & Admission","direction":"column","gap":30,"children":[{"id":"pr","label":"Pull Request","sub":"checklist & ```receipt block","width":220},{"id":"ci","label":"4. CI Re-check","sub":"standardsctl forge validate-pr","width":220},{"direction":"row","gap":24,"children":[{"id":"admit","label":"Admitted","sub":"PR check passes","width":170},{"id":"reject","label":"Rejected","sub":"validate-pr exits 1","width":170}]}]}]},"edges":[{"from":"editor","to":"hooks","label":"save / stage"},{"from":"hooks","to":"gate","label":"commit / push"},{"from":"key","to":"gate","label":"LoadSigningKey"},{"from":"gate","to":"receipt","label":"signed v2"},{"from":"receipt","to":"pr","label":"fenced in body"},{"from":"pr","to":"ci","label":"validate-pr"},{"from":"ci","to":"admit","label":"valid receipt"},{"id":"hook-fail","from":"hooks","to":"blocked","label":"hook exit 1"},{"id":"ci-fail","from":"ci","to":"reject","label":"receipt invalid"}],"steps":[{"label":"clean change -> admitted","caption":"A clean change passes all four tiers and is admitted by CI.","flow":[{"edges":"editor->hooks","say":"Editor LSP reports zero diagnostics as code is written."},{"edges":"hooks->gate","say":"Pre-commit and pre-push hooks run local checks and linters."},{"edges":"key->gate","say":"Gate runs 6 stages; Ed25519 signing key is loaded."},{"edges":"gate->receipt","say":"Stage output signed; .standards-receipt.json minted for HEAD commit.","show":{"receipt":[{"tag":"signed","tone":"green","text":"praetor-gate-output/v2","mono":true}]}},{"edges":"receipt->pr","say":"PR is opened with checked HISS boxes and fenced receipt block."},{"edges":"pr->ci","say":"CI runs standardsctl forge validate-pr on the PR description."},{"edges":"ci->admit","say":"Signature, clean worktree, and head SHA match: PR is admitted.","show":{"admit":[{"tag":"passed","tone":"green","text":"ADMITTED","meta":"exit 0"}]}}]},{"label":"a hook blocks locally","caption":"A local hook blocks commit or push before CI runs.","flow":[{"edges":"editor->hooks","say":"Change introduces an error or invariant violation."},{"edges":"hook-fail","say":"Lefthook pre-commit or pre-push hook rejects the change locally.","show":{"blocked":[{"tag":"failed","tone":"orange","text":"lefthook exit 1","meta":"nothing pushed"}]}}]},{"label":"CI rejects invalid receipt","caption":"CI rejects a pull request with a missing or invalid receipt.","flow":[{"edges":"editor->hooks","say":"Code is edited and committed."},{"edges":"hooks->gate","say":"Local checks pass."},{"edges":"receipt->pr","say":"PR submitted with missing, unpinned, or mismatched receipt."},{"edges":"pr->ci","say":"CI step runs standardsctl forge validate-pr."},{"edges":"ci-fail","say":"Receipt verification fails: commit mismatch, dirty tree, or missing block.","show":{"reject":[{"tag":"failed","tone":"orange","text":"validate-pr failed","meta":"exit 1"}]}}]}]}}]]></metadata>
<style>
svg { --accent:#0074d9; --fg:#1c1e21; --muted:#606770; --bg:#ffffff; --surface:#f5f7fa; --border:#d0d7de; --card-on:#eef5fd; }
@media (prefers-color-scheme: dark) { svg { --accent:#3396e8; --fg:#e3e3e3; --muted:#9aa0a6; --bg:#1b1b1d; --surface:#242526; --border:#3a3b3c; --card-on:#1d2733; } }
.label { fill: var(--fg); font-size: 14px; font-weight: 500; text-anchor: middle; }
.sub { fill: var(--muted); font-size: 12px; text-anchor: middle; }
.frame { fill: var(--muted); font-size: 11px; font-weight: 600; letter-spacing: .04em; }
.edgelabel { fill: var(--muted); font-size: 11px; text-anchor: middle; font-family: ui-monospace, Menlo, monospace; }
.row { fill: var(--fg); font-size: 11px; }
.row.mono { font-size: 10.5px; font-family: ui-monospace, Menlo, monospace; }
.muted { fill: var(--muted); }
.tag { font-size: 9px; font-weight: 600; letter-spacing: .03em; text-anchor: middle; }
.mark { fill: var(--accent); font-size: 11px; font-weight: 600; text-anchor: end; }
.chip { fill: #fff; font-size: 11.5px; text-anchor: middle; }
.steplabel { fill: var(--fg); font-size: 13px; font-weight: 600; text-anchor: middle; font-family: ui-monospace, Menlo, monospace; }
.caption { fill: var(--muted); font-size: 13.5px; text-anchor: middle; }

</style>
<defs><marker id="arrow" viewBox="0 0 10 10" refX="9" refY="5" markerWidth="7" markerHeight="7" orient="auto-start-reverse"><path d="M 0 1 L 9 5 L 0 9 z" fill="var(--muted)"/></marker></defs>
<rect width="100%" height="100%" fill="var(--bg)"/>
<g transform="translate(0 0)">
<rect x="24" y="24" width="556" height="373" rx="14" fill="var(--surface)" stroke="var(--border)"/><text x="42" y="44" class="frame">LOCAL WORKSTATION</text>
<rect x="342" y="61" width="220" height="53" rx="10" fill="var(--bg)" stroke="var(--border)"/><text x="452" y="85.5" class="label">1. Editor LSP</text><text x="452" y="100.5" class="sub">cmd/standards-lsp</text>
<rect x="42" y="140" width="190" height="53" rx="10" fill="var(--bg)" stroke="var(--border)"/><text x="137" y="164.5" class="label">Blocked locally</text><text x="137" y="179.5" class="sub">commit or push refused</text>
<rect x="342" y="140" width="220" height="53" rx="10" fill="var(--bg)" stroke="var(--border)"/><text x="452" y="164.5" class="label">2. Git Hooks</text><text x="452" y="179.5" class="sub">lefthook pre-commit &amp; pre-push</text>
<path d="M42 231 a 95 12 0 0 1 190 0 v 43 a 95 12 0 0 1 -190 0 z" fill="var(--bg)" stroke="var(--border)"/><path d="M42 231 a 95 12 0 0 0 190 0" fill="none" stroke="var(--border)"/><text x="137" y="256" class="label">Signing Key</text><text x="137" y="271" class="sub">env var or key file</text>
<rect x="342" y="226" width="220" height="53" rx="10" fill="var(--bg)" stroke="var(--border)"/><text x="452" y="250.5" class="label">3. Gate Pipeline</text><text x="452" y="265.5" class="sub">6 stages in internal/gating</text>
<path d="M342 324 a 110 12 0 0 1 220 0 v 43 a 110 12 0 0 1 -220 0 z" fill="var(--bg)" stroke="var(--border)"/><path d="M342 324 a 110 12 0 0 0 220 0" fill="none" stroke="var(--border)"/><text x="452" y="349" class="label">.standards-receipt.json</text><text x="452" y="364" class="sub">Exit-0 receipt</text>
<rect x="102" y="445" width="400" height="274" rx="14" fill="var(--surface)" stroke="var(--border)"/><text x="120" y="465" class="frame">REMOTE CI &amp; ADMISSION</text>
<rect x="192" y="482" width="220" height="53" rx="10" fill="var(--bg)" stroke="var(--border)"/><text x="302" y="506.5" class="label">Pull Request</text><text x="302" y="521.5" class="sub">checklist &amp; ```receipt block</text>
<rect x="192" y="565" width="220" height="53" rx="10" fill="var(--bg)" stroke="var(--border)"/><text x="302" y="589.5" class="label">4. CI Re-check</text><text x="302" y="604.5" class="sub">standardsctl forge validate-pr</text>
<rect x="120" y="648" width="170" height="53" rx="10" fill="var(--bg)" stroke="var(--border)"/><text x="205" y="672.5" class="label">Admitted</text><text x="205" y="687.5" class="sub">PR check passes</text>
<rect x="314" y="648" width="170" height="53" rx="10" fill="var(--bg)" stroke="var(--border)"/><text x="399" y="672.5" class="label">Rejected</text><text x="399" y="687.5" class="sub">validate-pr exits 1</text>
<path id="p-editor-&gt;hooks" d="M 452 114 C 452 127, 452 127, 452 140" fill="none" stroke="var(--muted)" stroke-width="1.25" marker-end="url(#arrow)"/><rect x="410" y="118" width="84" height="18" rx="9" fill="var(--bg)" stroke="var(--border)"/><text x="452" y="131" class="edgelabel">save / stage</text>
<path id="p-hooks-&gt;gate" d="M 452 193 C 452 209.5, 452 209.5, 452 226" fill="none" stroke="var(--muted)" stroke-width="1.25" marker-end="url(#arrow)"/><rect x="407.1" y="200.5" width="89.8" height="18" rx="9" fill="var(--bg)" stroke="var(--border)"/><text x="452" y="213.5" class="edgelabel">commit / push</text>
<path id="p-key-&gt;gate" d="M 232 252.5 C 287 252.5, 287 252.5, 342 252.5" fill="none" stroke="var(--muted)" stroke-width="1.25" marker-end="url(#arrow)"/><rect x="239.2" y="243.5" width="95.6" height="18" rx="9" fill="var(--bg)" stroke="var(--border)"/><text x="287" y="256.5" class="edgelabel">LoadSigningKey</text>
<path id="p-gate-&gt;receipt" d="M 452 279 C 452 295.5, 452 295.5, 452 312" fill="none" stroke="var(--muted)" stroke-width="1.25" marker-end="url(#arrow)"/><rect x="418.8" y="286.5" width="66.5" height="18" rx="9" fill="var(--bg)" stroke="var(--border)"/><text x="452" y="299.5" class="edgelabel">signed v2</text>
<path id="p-receipt-&gt;pr" d="M 452 379 C 452 430.5, 302 430.5, 302 482" fill="none" stroke="var(--muted)" stroke-width="1.25" marker-end="url(#arrow)"/><rect x="329.2" y="421.5" width="95.6" height="18" rx="9" fill="var(--bg)" stroke="var(--border)"/><text x="377" y="434.5" class="edgelabel">fenced in body</text>
<path id="p-pr-&gt;ci" d="M 302 535 C 302 550, 302 550, 302 565" fill="none" stroke="var(--muted)" stroke-width="1.25" marker-end="url(#arrow)"/><rect x="262.9" y="541" width="78.1" height="18" rx="9" fill="var(--bg)" stroke="var(--border)"/><text x="302" y="554" class="edgelabel">validate-pr</text>
<path id="p-ci-&gt;admit" d="M 265.3333333333333 618 C 265.3333333333333 633, 205 633, 205 648" fill="none" stroke="var(--muted)" stroke-width="1.25" marker-end="url(#arrow)"/><rect x="190.3" y="624" width="89.8" height="18" rx="9" fill="var(--bg)" stroke="var(--border)"/><text x="235.2" y="637" class="edgelabel">valid receipt</text>
<path id="p-hook-fail" d="M 342 166.5 C 287 166.5, 287 166.5, 232 166.5" fill="none" stroke="var(--muted)" stroke-width="1.25" marker-end="url(#arrow)"/><rect x="247.9" y="157.5" width="78.1" height="18" rx="9" fill="var(--bg)" stroke="var(--border)"/><text x="287" y="170.5" class="edgelabel">hook exit 1</text>
<path id="p-ci-fail" d="M 338.66666666666663 618 C 338.66666666666663 633, 399 633, 399 648" fill="none" stroke="var(--muted)" stroke-width="1.25" marker-end="url(#arrow)"/><rect x="318.1" y="624" width="101.5" height="18" rx="9" fill="var(--bg)" stroke="var(--border)"/><text x="368.8" y="637" class="edgelabel">receipt invalid</text>

</g>


</svg>
